<svg width="333" height="143" viewBox="0 0 333 143" fill="none" xmlns="http://www.w3.org/2000/svg">
<path d="M147.29 13.4L94.602 138H53.306L0.618 13.4H45.83L75.556 86.202L105.994 13.4H147.29ZM246.693 89.228C246.693 89.8213 246.515 92.966 246.159 98.662H178.519C179.943 102.341 182.317 105.189 185.639 107.206C188.962 109.105 193.115 110.054 198.099 110.054C202.371 110.054 205.931 109.52 208.779 108.452C211.746 107.384 214.95 105.545 218.391 102.934L239.395 124.116C229.902 134.559 215.721 139.78 196.853 139.78C185.105 139.78 174.781 137.644 165.881 133.372C156.981 128.981 150.099 122.929 145.233 115.216C140.368 107.503 137.935 98.84 137.935 89.228C137.935 79.4973 140.309 70.8347 145.055 63.24C149.921 55.5267 156.507 49.534 164.813 45.262C173.239 40.99 182.673 38.854 193.115 38.854C202.965 38.854 211.924 40.812 219.993 44.728C228.181 48.644 234.649 54.3993 239.395 61.994C244.261 69.5887 246.693 78.6667 246.693 89.228ZM193.471 66.266C189.318 66.266 185.877 67.3933 183.147 69.648C180.418 71.9027 178.638 75.1067 177.807 79.26H209.135C208.305 75.2253 206.525 72.0807 203.795 69.826C201.066 67.4527 197.625 66.266 193.471 66.266ZM331.122 134.618C325.07 138.059 316.823 139.78 306.38 139.78C292.734 139.78 282.232 136.517 274.874 129.99C267.517 123.345 263.838 113.436 263.838 100.264V75.344H250.488V45.974H263.838V18.74H304.066V45.974H324.002V75.344H304.066V99.908C304.066 102.875 304.838 105.189 306.38 106.85C307.923 108.511 309.94 109.342 312.432 109.342C315.874 109.342 318.9 108.452 321.51 106.672L331.122 134.618Z" fill="#D1F5FF"/>
<path d="M43.4517 15.7349C43.4517 16.0542 43.3807 16.3735 43.2388 16.6929C43.1323 17.0122 43.0081 17.3315 42.8662 17.6509C42.2275 19.1411 41.5356 20.5959 40.7905 22.0151C40.0809 23.4344 39.4422 24.8892 38.8745 26.3794C37.9165 28.8631 37.0827 31.542 36.373 34.416C35.6989 37.29 35.0957 40.306 34.5635 43.4639C34.0667 46.6217 33.6587 49.8861 33.3394 53.2568C33.02 56.6276 32.7894 60.0693 32.6475 63.582C34.5635 63.9723 36.3198 64.5578 37.9165 65.3384C39.5132 66.119 41.0566 67.077 42.5469 68.2124C45.3854 66.4383 48.0111 64.2562 50.4238 61.666C52.8366 59.0404 55.0365 56.1841 57.0234 53.0972C59.0459 50.0103 60.8555 46.7814 62.4521 43.4106C64.0488 40.0399 65.4504 36.7223 66.6567 33.458C67.8986 30.1937 68.9453 27.0713 69.7969 24.0908C70.6484 21.1104 71.3403 18.467 71.8726 16.1606C72.0145 15.38 72.3516 14.5994 72.8838 13.8188C73.416 13.0382 74.0369 12.3286 74.7466 11.6899C75.4917 11.0513 76.29 10.5368 77.1416 10.1465C77.9932 9.7207 78.827 9.50781 79.6431 9.50781C80.4591 9.50781 81.0446 9.75618 81.3994 10.2529C81.7542 10.7142 81.9316 11.3351 81.9316 12.1157V12.8608C81.5413 16.1606 80.814 19.6201 79.7495 23.2393C78.6851 26.8584 77.3368 30.513 75.7046 34.2031C74.1079 37.8577 72.2096 41.4591 70.0098 45.0073C67.8454 48.5555 65.4326 51.8908 62.7715 55.0132C60.1458 58.1001 57.2896 60.9209 54.2026 63.4756C51.1157 66.0303 47.8514 68.1414 44.4097 69.8091C45.1193 70.4123 45.8112 71.0332 46.4854 71.6719C47.195 72.3105 47.9224 72.9847 48.6675 73.6943C51.8254 76.6748 54.9123 79.7085 57.9282 82.7954C60.9797 85.8823 64.1021 88.8805 67.2954 91.79C70.4888 94.6995 73.8241 97.4139 77.3013 99.9331C80.7785 102.488 84.5396 104.705 88.5845 106.586C89.6489 107.083 90.8376 107.562 92.1504 108.023C93.4632 108.52 94.8115 108.945 96.1953 109.3C97.5791 109.655 98.9451 109.939 100.293 110.152C101.677 110.365 102.955 110.471 104.125 110.471C104.729 110.471 105.314 110.436 105.882 110.365C106.45 110.329 107.035 110.223 107.638 110.045L107.851 111.163C106.325 112.015 104.693 112.6 102.955 112.919C101.216 113.274 99.4419 113.452 97.6323 113.452C96.2485 113.452 94.776 113.345 93.2148 113.132C91.6536 112.955 90.0747 112.671 88.478 112.281C86.8813 111.926 85.3201 111.482 83.7944 110.95C82.3042 110.453 80.9559 109.903 79.7495 109.3C76.1304 107.491 72.5645 105.344 69.0518 102.86C65.5745 100.412 62.2215 97.751 58.9927 94.877C55.7638 92.0029 52.6947 88.987 49.7852 85.8291C46.9111 82.6712 44.2855 79.4601 41.9082 76.1958C41.4115 75.5216 40.9147 74.8298 40.418 74.1201C39.9567 73.4105 39.4777 72.7008 38.981 71.9912C36.8521 72.6654 34.6344 73.1444 32.3281 73.4282C32.2572 78.9279 32.3281 84.3211 32.541 89.6079C32.7539 94.8947 33.0378 99.9508 33.3926 104.776L32.2217 105.202C31.3346 102.896 30.554 100.465 29.8799 97.9106C29.2412 95.356 28.6912 92.7303 28.23 90.0337C27.7687 87.3371 27.3784 84.6227 27.0591 81.8906C26.7752 79.123 26.5446 76.3732 26.3672 73.6411C25.5511 73.5701 24.7173 73.4282 23.8657 73.2153C23.0496 72.967 22.2868 72.6476 21.5771 72.2573C20.903 71.8315 20.3353 71.2993 19.874 70.6606C19.4482 70.022 19.2354 69.2591 19.2354 68.3721C19.2354 67.5205 19.4305 66.7931 19.8208 66.1899C20.2466 65.5513 20.7788 65.019 21.4175 64.5933C22.0916 64.1675 22.819 63.8481 23.5996 63.6353C24.4157 63.3869 25.214 63.2272 25.9946 63.1562V60.1758C25.9946 58.4372 26.0124 56.255 26.0479 53.6294C26.0833 51.0037 26.1898 48.1829 26.3672 45.167C26.5801 42.151 26.8994 39.0819 27.3252 35.9595C27.7865 32.8371 28.4074 29.9098 29.188 27.1777C30.0041 24.4456 31.0153 22.0506 32.2217 19.9927C33.4635 17.9347 34.9893 16.4445 36.7988 15.522C37.5085 15.1317 38.2358 14.7769 38.981 14.4575C39.7616 14.1382 40.5599 13.9785 41.376 13.9785C41.9082 13.9785 42.3872 14.1027 42.813 14.3511C43.2388 14.5994 43.4517 15.0607 43.4517 15.7349ZM20.1934 68.6914C20.1934 69.3301 20.3885 69.88 20.7788 70.3413C21.1691 70.7671 21.6659 71.1219 22.269 71.4058C22.9077 71.6896 23.5819 71.9202 24.2915 72.0977C25.0011 72.2396 25.6753 72.346 26.314 72.417C26.172 69.6494 26.0656 66.9528 25.9946 64.3271C25.285 64.3981 24.5754 64.5046 23.8657 64.6465C23.1916 64.7884 22.5706 65.0368 22.0029 65.3916C21.4707 65.7109 21.0272 66.1367 20.6724 66.6689C20.353 67.2012 20.1934 67.8753 20.1934 68.6914ZM32.3813 72.1509C34.3328 71.8315 36.2134 71.2993 38.0229 70.5542C37.2424 69.4543 36.4085 68.4608 35.5215 67.5737C34.6699 66.6512 33.6764 65.8883 32.541 65.2852C32.5055 66.4206 32.4701 67.5737 32.4346 68.7446C32.3991 69.88 32.3813 71.0155 32.3813 72.1509ZM97.8984 59.1113C97.8984 59.5016 97.7565 59.8564 97.4727 60.1758C97.1888 60.4596 96.8517 60.6016 96.4614 60.6016C96.1421 60.6016 95.805 60.5129 95.4502 60.3354C95.0954 60.1226 94.6873 59.8919 94.2261 59.6436C93.8003 59.3952 93.2858 59.1823 92.6826 59.0049C92.1149 58.792 91.4585 58.6855 90.7134 58.6855C88.9748 58.6855 87.4136 59.2355 86.0298 60.3354C84.6815 61.3999 83.5283 62.7305 82.5703 64.3271C81.6478 65.9238 80.9382 67.627 80.4414 69.4365C79.9447 71.2461 79.6963 72.8783 79.6963 74.333C79.6963 75.362 79.785 76.3732 79.9624 77.3667C80.1398 78.3247 80.4414 79.2118 80.8672 80.0278C81.3285 80.8084 81.9494 81.4471 82.73 81.9438C83.5106 82.4051 84.5041 82.6357 85.7104 82.6357C86.9878 82.6357 88.2119 82.4051 89.3828 81.9438C90.5537 81.4471 91.6536 80.8084 92.6826 80.0278C92.7181 78.8924 92.8955 77.7038 93.2148 76.4619C93.5697 75.1846 94.0132 73.9427 94.5454 72.7363C95.0776 71.4945 95.6808 70.3236 96.355 69.2236C97.0646 68.1237 97.792 67.1479 98.5371 66.2964L99.229 66.7222C98.8387 67.9285 98.5549 69.1704 98.3774 70.4478C98.2 71.7251 98.1113 72.9847 98.1113 74.2266C98.1113 75.5039 98.2178 76.7103 98.4307 77.8457C98.6436 78.9811 99.0161 79.9746 99.5483 80.8262C100.081 81.6423 100.808 82.2987 101.73 82.7954C102.653 83.2567 103.842 83.4873 105.296 83.4873C107.07 83.4873 108.703 83.0793 110.193 82.2632C111.683 81.4471 112.996 80.4181 114.131 79.1763L114.557 79.3892C113.918 80.631 113.085 81.8197 112.056 82.9551C111.027 84.0905 109.874 85.1195 108.596 86.042C107.354 86.929 106.024 87.6387 104.604 88.1709C103.185 88.7031 101.784 88.9692 100.4 88.9692C98.4484 88.9692 96.8517 88.4015 95.6099 87.2661C94.368 86.1662 93.5164 84.7646 93.0552 83.0615C91.5649 84.5518 89.8973 85.8114 88.0522 86.8403C86.2427 87.8338 84.3267 88.3306 82.3042 88.3306C80.814 88.3306 79.4834 88.0467 78.3125 87.479C77.1771 86.9468 76.2191 86.2194 75.4385 85.2969C74.6579 84.3743 74.0547 83.2922 73.6289 82.0503C73.2386 80.7729 73.0435 79.4424 73.0435 78.0586C73.0435 76.4619 73.2918 74.8298 73.7886 73.1621C74.3208 71.459 75.0304 69.7913 75.9175 68.1592C76.84 66.527 77.9222 64.9836 79.1641 63.5288C80.4059 62.0741 81.7542 60.7967 83.209 59.6968C84.6992 58.5968 86.2604 57.7275 87.8926 57.0889C89.5247 56.4502 91.1924 56.1309 92.8955 56.1309C93.2858 56.1309 93.7648 56.1841 94.3325 56.2905C94.9002 56.3615 95.4502 56.5034 95.9824 56.7163C96.5146 56.9292 96.9582 57.2308 97.313 57.6211C97.7033 58.0114 97.8984 58.5081 97.8984 59.1113ZM140.743 81.1455C139.607 83.4873 138.011 85.3501 135.953 86.7339C133.895 88.0822 131.553 88.7563 128.927 88.7563C126.763 88.7563 124.829 88.0999 123.126 86.7871C121.423 85.4743 119.915 83.7534 118.602 81.6245C117.325 79.4956 116.225 77.1006 115.302 74.4395C114.415 71.7428 113.67 69.0107 113.067 66.2432C112.499 63.4756 112.073 60.8145 111.79 58.2598C111.541 55.6696 111.417 53.4165 111.417 51.5005C111.417 49.1587 111.541 46.5863 111.79 43.7832C112.038 40.9801 112.446 38.1593 113.014 35.3208C113.581 32.4468 114.309 29.6615 115.196 26.9648C116.118 24.2682 117.218 21.891 118.496 19.833C119.808 17.7396 121.316 16.0719 123.02 14.8301C124.723 13.5527 126.674 12.9141 128.874 12.9141C130.755 12.9141 132.28 13.464 133.451 14.564C134.622 15.6639 135.545 17.0299 136.219 18.6621C136.893 20.2588 137.336 21.9619 137.549 23.7715C137.798 25.5811 137.922 27.1955 137.922 28.6147C137.922 32.4468 137.461 36.2256 136.538 39.9512C135.651 43.6413 134.409 47.1362 132.812 50.436C131.251 53.7004 129.406 56.6808 127.277 59.3774C125.148 62.0386 122.86 64.2739 120.412 66.0835C120.908 68.4608 121.494 70.7848 122.168 73.0557C122.878 75.291 123.729 77.2957 124.723 79.0698C125.716 80.8084 126.852 82.2277 128.129 83.3276C129.442 84.3921 130.932 84.9243 132.6 84.9243C134.267 84.9243 135.704 84.5872 136.911 83.9131C138.117 83.2389 139.235 82.2454 140.264 80.9326L140.743 81.1455ZM118.815 48.3071C118.779 49.0877 118.762 50.0457 118.762 51.1812C118.797 52.3166 118.85 53.5762 118.921 54.96C119.028 56.3083 119.17 57.763 119.347 59.3242C119.525 60.8854 119.755 62.4821 120.039 64.1143C122.416 61.9854 124.439 59.6258 126.106 57.0356C127.774 54.4455 129.14 51.6602 130.205 48.6797C131.269 45.6637 132.032 42.5059 132.493 39.2061C132.99 35.8708 133.238 32.4113 133.238 28.8276C133.238 28.3664 133.221 27.7632 133.185 27.0181C133.185 26.2729 133.132 25.4746 133.025 24.623C132.919 23.7715 132.759 22.9199 132.546 22.0684C132.369 21.2168 132.103 20.4539 131.748 19.7798C131.429 19.0701 131.003 18.5024 130.471 18.0767C129.974 17.6154 129.371 17.3848 128.661 17.3848C127.313 17.3848 126.124 18.0589 125.095 19.4072C124.102 20.7201 123.232 22.4054 122.487 24.4634C121.778 26.5213 121.174 28.7922 120.678 31.2759C120.216 33.7596 119.844 36.1546 119.56 38.4609C119.276 40.7318 119.081 42.772 118.975 44.5815C118.868 46.3911 118.815 47.633 118.815 48.3071ZM152.505 44.0493C152.505 44.759 152.345 45.4686 152.026 46.1782C151.707 46.8879 151.281 47.5265 150.749 48.0942C150.252 48.6265 149.666 49.07 148.992 49.4248C148.318 49.7796 147.626 49.957 146.917 49.957C145.994 49.957 145.249 49.6554 144.681 49.0522C144.149 48.4491 143.883 47.6862 143.883 46.7637C143.883 46.054 144.042 45.3621 144.362 44.688C144.681 43.9784 145.089 43.3574 145.586 42.8252C146.118 42.293 146.704 41.8672 147.342 41.5479C148.016 41.193 148.708 41.0156 149.418 41.0156C150.34 41.0156 151.086 41.2995 151.653 41.8672C152.221 42.4349 152.505 43.1623 152.505 44.0493ZM167.407 79.3892C166.591 80.7375 165.615 81.9793 164.48 83.1147C163.38 84.2147 162.156 85.1904 160.808 86.042C159.495 86.8581 158.076 87.4967 156.55 87.958C155.06 88.4193 153.516 88.6499 151.919 88.6499C149.932 88.6499 148.158 88.3128 146.597 87.6387C145.071 86.9645 143.776 86.042 142.712 84.8711C141.683 83.6647 140.885 82.2632 140.317 80.6665C139.785 79.0343 139.519 77.2603 139.519 75.3442C139.519 73.2863 139.82 71.3348 140.423 69.4897C141.027 67.6447 141.86 65.9238 142.925 64.3271C143.989 62.695 145.231 61.2048 146.65 59.8564C148.105 58.5081 149.649 57.3018 151.281 56.2373L151.919 56.7163C150.181 58.7743 148.762 61.0806 147.662 63.6353C146.597 66.1899 146.065 68.8511 146.065 71.6187C146.065 73.2153 146.242 74.7588 146.597 76.249C146.987 77.7038 147.573 78.9989 148.354 80.1343C149.17 81.2697 150.199 82.1745 151.44 82.8486C152.682 83.5228 154.19 83.8599 155.964 83.8599C158.058 83.8599 160.045 83.4163 161.925 82.5293C163.841 81.6423 165.562 80.5246 167.088 79.1763L167.407 79.3892ZM210.784 79.3892C210.11 80.6665 209.382 81.8906 208.602 83.0615C207.856 84.2324 207.005 85.2614 206.047 86.1484C205.089 87.0355 204.007 87.7451 202.8 88.2773C201.594 88.8096 200.21 89.0757 198.649 89.0757C196.875 89.0757 195.349 88.6322 194.072 87.7451C192.794 86.8936 191.694 85.7581 190.772 84.3389C189.885 82.8841 189.158 81.2342 188.59 79.3892C188.058 77.5441 187.614 75.6636 187.259 73.7476C186.904 71.8315 186.638 69.951 186.461 68.106C186.284 66.2254 186.124 64.54 185.982 63.0498C185.308 63.582 184.492 64.611 183.534 66.1367C182.576 67.627 181.6 69.3833 180.606 71.4058C179.613 73.4282 178.655 75.6281 177.732 78.0054C176.845 80.3826 176.118 82.7244 175.55 85.0308C175.444 85.5275 175.266 86.042 175.018 86.5742C174.805 87.1064 174.521 87.5854 174.167 88.0112C173.847 88.4725 173.457 88.8451 172.996 89.1289C172.534 89.4482 172.02 89.6079 171.452 89.6079C170.53 89.6079 169.855 89.2886 169.43 88.6499C169.039 88.0112 168.756 87.2839 168.578 86.4678C167.549 81.9616 166.822 77.6506 166.396 73.5347C166.006 69.4188 165.811 65.3029 165.811 61.187C165.811 60.1935 165.97 59.342 166.29 58.6323C166.644 57.8872 167.106 57.284 167.673 56.8228C168.241 56.326 168.915 55.9712 169.696 55.7583C170.476 55.5099 171.292 55.3857 172.144 55.3857C172.25 55.3857 172.41 55.3857 172.623 55.3857C172.871 55.3857 173.102 55.4212 173.315 55.4922C173.528 55.5277 173.705 55.5986 173.847 55.7051C173.989 55.8115 174.042 55.9535 174.007 56.1309C173.084 60.779 172.641 65.5158 172.676 70.3413C172.712 75.1313 172.96 79.744 173.421 84.1792C173.812 82.4051 174.379 80.4004 175.125 78.165C175.905 75.8942 176.792 73.6234 177.786 71.3525C178.815 69.0462 179.915 66.8641 181.085 64.8062C182.292 62.7127 183.516 60.9564 184.758 59.5371C185.361 58.863 185.964 58.2952 186.567 57.834C187.206 57.3372 187.987 57.0889 188.909 57.0889C189.441 57.0889 189.885 57.1953 190.24 57.4082C190.595 57.6211 190.878 57.8872 191.091 58.2065C191.34 58.5259 191.517 58.8984 191.624 59.3242C191.765 59.7145 191.872 60.1048 191.943 60.4951C192.12 61.5241 192.298 62.8547 192.475 64.4868C192.653 66.119 192.865 67.8576 193.114 69.7026C193.398 71.5477 193.735 73.4105 194.125 75.291C194.515 77.1361 195.012 78.8215 195.615 80.3472C196.218 81.8374 196.946 83.0615 197.797 84.0195C198.649 84.9775 199.66 85.4565 200.831 85.4565C201.789 85.4565 202.712 85.2791 203.599 84.9243C204.521 84.534 205.39 84.055 206.207 83.4873C207.023 82.8841 207.785 82.21 208.495 81.4648C209.205 80.6842 209.843 79.9214 210.411 79.1763L210.784 79.3892ZM233.297 59.1113C233.297 59.5016 233.155 59.8564 232.871 60.1758C232.587 60.4596 232.25 60.6016 231.86 60.6016C231.541 60.6016 231.203 60.5129 230.849 60.3354C230.494 60.1226 230.086 59.8919 229.625 59.6436C229.199 59.3952 228.684 59.1823 228.081 59.0049C227.513 58.792 226.857 58.6855 226.112 58.6855C224.373 58.6855 222.812 59.2355 221.428 60.3354C220.08 61.3999 218.927 62.7305 217.969 64.3271C217.046 65.9238 216.337 67.627 215.84 69.4365C215.343 71.2461 215.095 72.8783 215.095 74.333C215.095 75.362 215.183 76.3732 215.361 77.3667C215.538 78.3247 215.84 79.2118 216.266 80.0278C216.727 80.8084 217.348 81.4471 218.128 81.9438C218.909 82.4051 219.903 82.6357 221.109 82.6357C222.386 82.6357 223.61 82.4051 224.781 81.9438C225.952 81.4471 227.052 80.8084 228.081 80.0278C228.117 78.8924 228.294 77.7038 228.613 76.4619C228.968 75.1846 229.412 73.9427 229.944 72.7363C230.476 71.4945 231.079 70.3236 231.753 69.2236C232.463 68.1237 233.19 67.1479 233.936 66.2964L234.627 66.7222C234.237 67.9285 233.953 69.1704 233.776 70.4478C233.598 71.7251 233.51 72.9847 233.51 74.2266C233.51 75.5039 233.616 76.7103 233.829 77.8457C234.042 78.9811 234.415 79.9746 234.947 80.8262C235.479 81.6423 236.206 82.2987 237.129 82.7954C238.051 83.2567 239.24 83.4873 240.695 83.4873C242.469 83.4873 244.101 83.0793 245.591 82.2632C247.082 81.4471 248.394 80.4181 249.53 79.1763L249.956 79.3892C249.317 80.631 248.483 81.8197 247.454 82.9551C246.425 84.0905 245.272 85.1195 243.995 86.042C242.753 86.929 241.422 87.6387 240.003 88.1709C238.584 88.7031 237.182 88.9692 235.798 88.9692C233.847 88.9692 232.25 88.4015 231.008 87.2661C229.766 86.1662 228.915 84.7646 228.454 83.0615C226.963 84.5518 225.296 85.8114 223.451 86.8403C221.641 87.8338 219.725 88.3306 217.703 88.3306C216.212 88.3306 214.882 88.0467 213.711 87.479C212.576 86.9468 211.618 86.2194 210.837 85.2969C210.056 84.3743 209.453 83.2922 209.027 82.0503C208.637 80.7729 208.442 79.4424 208.442 78.0586C208.442 76.4619 208.69 74.8298 209.187 73.1621C209.719 71.459 210.429 69.7913 211.316 68.1592C212.238 66.527 213.321 64.9836 214.562 63.5288C215.804 62.0741 217.153 60.7967 218.607 59.6968C220.098 58.5968 221.659 57.7275 223.291 57.0889C224.923 56.4502 226.591 56.1309 228.294 56.1309C228.684 56.1309 229.163 56.1841 229.731 56.2905C230.299 56.3615 230.849 56.5034 231.381 56.7163C231.913 56.9292 232.357 57.2308 232.711 57.6211C233.102 58.0114 233.297 58.5081 233.297 59.1113Z" fill="#F24C3D"/>
</svg>
